{"title":"Manglehorn (2015) 720p WEB-DL x264 AAC 5.1 -={SPARROW}=-","uid":12037161,"size":921993586,"categoryP":"video","categoryS":"movies","magnet":"?xt=urn:btih:07f7d20754b8ac0946a34629e291b092231e8e0e&amp;dn=Manglehorn+%282015%29+720p+WEB-DL+x264+AAC+5.1+-%3D%7BSPARROW%7D%3D-&amp;tr=udp%3A%2F%2Ftracker.openbittorrent.com%3A80&amp;tr=udp%3A%2F%2Fopen.demonii.com%3A1337&amp;tr=udp%3A%2F%2Ftracker.coppersurfer.tk%3A6969&amp;tr=udp%3A%2F%2Fexodus.desync.com%3A6969","seeders":0,"leechers":1,"uploader":"SS132203","files":3,"time":1434705287,"description":"Manglehorn (2015) 720p WEB-DL x264 AAC 5.1 -={SPARROW}=-\n &lt;a href=&quot;\nhttp://imgsparrow.co/image/Ql&quot; rel=&quot;nofollow&quot; target=&quot;_NEW&quot;&gt;\nhttp://imgsparrow.co/image/Ql&lt;/a&gt;\n &lt;a href=&quot;\nhttp://imgsparrow.co/image/Et&quot; rel=&quot;nofollow&quot; target=&quot;_NEW&quot;&gt;\nhttp://imgsparrow.co/image/Et&lt;/a&gt;\n\nInfo : - \n\nSOURCE: MP4Ba (Thanks a Ton)\n\nFormat                      : MPEG-4\nFormat profile              : Base Media / Version 2\nCodec ID                    : mp42\nFile size                   : 879 MiB\nDuration                    : 1h 37mn\nOverall bit rate mode       : Variable\nOverall bit rate            : 1 262 Kbps\nWriting application         : HandBrake 0.10.1 2015030800\n\nVideo\nID                          : 1\nFormat                      : AVC\nFormat/Info                 : Advanced Video Codec\nFormat profile              : &lt;a class=&quot;__cf_email__&quot; href=&quot;/cdn-cgi/l/email-protection&quot; data-cfemail=&quot;a8e5c9c1c6e8e49c8699&quot;&gt;[email&amp;#160;protected]&lt;/a&gt;&lt;script data-cfhash='f9e31' type=&quot;text/javascript&quot;&gt;\n/* &lt;![CDATA[ */!function(){try{var t=&quot;currentScript&quot;in document?document.currentScript:function(){for(var t=document.getElementsByTagName(&quot;script&quot;),e=t.length;e--;)if(t[e].getAttribute(&quot;data-cfhash&quot;))return t[e]}();if(t&amp;&amp;t.previousSibling){var e,r,n,i,c=t.previousSibling,a=c.getAttribute(&quot;data-cfemail&quot;);if(a){for(e=&quot;&quot;,r=parseInt(a.substr(0,2),16),n=2;a.length-n;n+=2)i=parseInt(a.substr(n,2),16)^r,e+=String.fromCharCode(i);e=document.createTextNode(e),c.parentNode.replaceChild(e,c)}t.parentNode.removeChild(t);}}catch(u){}}()/* ]]&gt; */&lt;/script&gt;\nFormat settings, CABAC      : Yes\nFormat settings, ReFrames   : 4 frames\nCodec ID                    : avc1\nCodec ID/Info               : Advanced Video Coding\nDuration                    : 1h 37mn\nBit rate                    : 1 000 Kbps\nWidth                       : 1 280 pixels\nHeight                      : 532 pixels\nDisplay aspect ratio        : 2.40:1\nFrame rate mode             : Variable\nFrame rate                  : 23.976 fps\nMinimum frame rate          : 23.974 fps\nMaximum frame rate          : 23.981 fps\nColor space                 : YUV\nChroma subsampling          : 4:2:0\nBit depth                   : 8 bits\nScan type                   : Progressive\nBits/(Pixel*Frame)          : 0.061\nStream size                 : 697 MiB (79%)\nWriting library             : x264 core 142 r2479 dd79a61\nColor range                 : Limited\nColor primaries             : BT.709\nTransfer characteristics    : BT.709\nMatrix coefficients         : BT.709\n\nAudio\nID                          : 2\nFormat                      : AAC\nFormat/Info                 : Advanced Audio Codec\nFormat profile              : LC\nCodec ID                    : 40\nDuration                    : 1h 37mn\nBit rate mode               : Variable\nBit rate                    : 255 Kbps\nChannel(s)                  : 2 channels\nChannel(s)_Original         : 6 channels\nChannel positions           : Front: L C R, Side: L R, LFE\nSampling rate               : 48.0 KHz\nCompression mode            : Lossy\nStream size                 : 178 MiB (20%)\nTitle                       : Surround / Surround\nLanguage                    : English\n\nMenu\nID                          : 3\nCodec ID                    : text\nDuration                    : 1h 37mn\nLanguage                    : English\nBit rate mode               : CBR\n00:00:00.000                : 1\n00:07:20.148                : 2\n00:19:22.203                : 3\n00:33:26.129                : 4\n00:43:43.162                : 5\n01:03:19.170                : 6\n01:19:06.200                : 7\n01:33:19.135                : 8\n\nScreens : - \n &lt;a href=&quot;\nhttp://imgsparrow.co/image/QF&quot; rel=&quot;nofollow&quot; target=&quot;_NEW&quot;&gt;\nhttp://imgsparrow.co/image/QF&lt;/a&gt; &lt;a href=&quot;\nhttp://imgsparrow.co/image/QO&quot; rel=&quot;nofollow&quot; target=&quot;_NEW&quot;&gt;\nhttp://imgsparrow.co/image/QO&lt;/a&gt; &lt;a href=&quot;\nhttp://imgsparrow.co/image/Qp&quot; rel=&quot;nofollow&quot; target=&quot;_NEW&quot;&gt;\nhttp://imgsparrow.co/image/Qp&lt;/a&gt; &lt;a href=&quot;\nhttp://imgsparrow.co/image/Q0&quot; rel=&quot;nofollow&quot; target=&quot;_NEW&quot;&gt;\nhttp://imgsparrow.co/image/Q0&lt;/a&gt; &lt;a href=&quot;\nhttp://imgsparrow.co/image/QB&quot; rel=&quot;nofollow&quot; target=&quot;_NEW&quot;&gt;\nhttp://imgsparrow.co/image/QB&lt;/a&gt; &lt;a href=&quot;\nhttp://imgsparrow.co/image/QK&quot; rel=&quot;nofollow&quot; target=&quot;_NEW&quot;&gt;\nhttp://imgsparrow.co/image/QK&lt;/a&gt; &lt;a href=&quot;\nhttp://imgsparrow.co/image/Q2&quot; rel=&quot;nofollow&quot; target=&quot;_NEW&quot;&gt;\nhttp://imgsparrow.co/image/Q2&lt;/a&gt; &lt;a href=&quot;\nhttp://imgsparrow.co/image/Q3&quot; rel=&quot;nofollow&quot; target=&quot;_NEW&quot;&gt;\nhttp://imgsparrow.co/image/Q3&lt;/a&gt; &lt;a href=&quot;\nhttp://imgsparrow.co/image/Qi&quot; rel=&quot;nofollow&quot; target=&quot;_NEW&quot;&gt;\nhttp://imgsparrow.co/image/Qi&lt;/a&gt; &lt;a href=&quot;\nhttp://imgsparrow.co/image/QV&quot; rel=&quot;nofollow&quot; target=&quot;_NEW&quot;&gt;\nhttp://imgsparrow.co/image/QV&lt;/a&gt;\n &lt;a href=&quot;\nhttp://imgsparrow.co/image/N2&quot; rel=&quot;nofollow&quot; target=&quot;_NEW&quot;&gt;\nhttp://imgsparrow.co/image/N2&lt;/a&gt;","torrent":{"xt":"urn:btih:07f7d20754b8ac0946a34629e291b092231e8e0e","amp;dn":"Manglehorn+%282015%29+720p+WEB-DL+x264+AAC+5.1+-%3D%7BSPARROW%7D%3D-","amp;tr":["udp%3A%2F%2Ftracker.openbittorrent.com%3A80","udp%3A%2F%2Fopen.demonii.com%3A1337","udp%3A%2F%2Ftracker.coppersurfer.tk%3A6969","udp%3A%2F%2Fexodus.desync.com%3A6969"],"infoHash":"07f7d20754b8ac0946a34629e291b092231e8e0e","infoHashBuffer":{"type":"Buffer","data":[7,247,210,7,84,184,172,9,70,163,70,41,226,145,176,146,35,30,142,14]},"announce":[],"urlList":[]}}